<?xml version="1.0" encoding="utf-8"?>
<!-- Svg Vector Icons : http://www.onlinewebfonts.com/icon -->
<!DOCTYPE svg PUBLIC "-//W3C//DTD SVG 1.1//EN" "http://www.w3.org/Graphics/SVG/1.1/DTD/svg11.dtd">
<svg version="1.1" xmlns="http://www.w3.org/2000/svg" xmlns:xlink="http://www.w3.org/1999/xlink" x="0px" y="0px" viewBox="0 0 256 256" enable-background="new 0 0 256 256" xml:space="preserve">
<metadata> Svg Vector Icons : http://www.onlinewebfonts.com/icon </metadata>
<g><g><path fill="#000000" d="M224.9,39.5H31.1C19.5,39.5,10,49,10,60.6v134.9c0,11.6,9.5,21.1,21.1,21.1h193.9c11.6,0,21.1-9.5,21.1-21.1V60.6C246,49,236.5,39.5,224.9,39.5z M160.8,122.7l76.3-64.2c0.1-0.1,0.2-0.2,0.3-0.3c0.1,0.8,0.2,1.6,0.2,2.5v134.9c0,1.2-0.2,2.4-0.6,3.5L160.8,122.7z M224.9,47.9c3.2,0,6.2,1.3,8.4,3.3c-0.6,0.1-1.2,0.4-1.7,0.8L128,139.3L102.8,118c-0.1-0.1-0.1-0.2-0.2-0.2c-0.2-0.2-0.4-0.3-0.6-0.4L24.4,52c-0.5-0.4-1.1-0.7-1.7-0.8c2.2-2,5.2-3.3,8.4-3.3L224.9,47.9L224.9,47.9z M18.4,195.4V60.6c0-0.8,0.1-1.7,0.2-2.5c0.1,0.1,0.1,0.2,0.3,0.3l74.4,62.7L18.5,196C18.5,195.8,18.4,195.6,18.4,195.4z M31.1,208.1c-4,0-7.5-1.9-9.8-4.7c1.1,0,2.1-0.4,3-1.2l75.5-75.5l25.5,21.5c0.2,0.2,0.4,0.3,0.6,0.4c0.1,0.1,0.3,0.2,0.5,0.3c0.5,0.2,1.1,0.3,1.6,0.3l0,0l0,0c0.6,0,1.1-0.1,1.6-0.3c0.2-0.1,0.3-0.2,0.5-0.3c0.2-0.1,0.5-0.2,0.7-0.4l23.6-19.9l77.4,77.4c0.1,0.1,0.2,0.1,0.4,0.2c-2,1.4-4.5,2.3-7.2,2.3L31.1,208.1L31.1,208.1z"/></g></g>
</svg>